<svg xmlns="http://www.w3.org/2000/svg" version="1.1" xmlns:xlink="http://www.w3.org/1999/xlink" xmlns:svgjs="http://svgjs.dev/svgjs" width="2000" height="505" viewBox="0 0 2000 505"><g transform="matrix(1,0,0,1,-1.2121212121212466,0.26472296497772163)"><svg viewBox="0 0 396 100" data-background-color="#ffffff" preserveAspectRatio="xMidYMid meet" height="505" width="2000" xmlns="http://www.w3.org/2000/svg" xmlns:xlink="http://www.w3.org/1999/xlink"><g id="tight-bounds" transform="matrix(1,0,0,1,0.2400000000000091,-0.052420389104497644)"><svg viewBox="0 0 395.52 100.10484077820902" height="100.10484077820902" width="395.52"><g><svg viewBox="0 0 562.0826835455086 142.26132064247471" height="100.10484077820902" width="395.52"><g transform="matrix(1,0,0,1,0,19.661296847114812)"><svg viewBox="0 0 395.52 102.93872694824509" height="102.93872694824509" width="395.52"><g id="textblocktransform"><svg viewBox="0 0 395.52 102.93872694824509" height="102.93872694824509" width="395.52" id="textblock"><g><svg viewBox="0 0 395.52 102.93872694824509" height="102.93872694824509" width="395.52"><g transform="matrix(1,0,0,1,0,0)"><svg width="395.52" viewBox="1.55 -43.35 168.08999999999997 43.75" height="102.93872694824509" data-palette-color="#6936f5"><path d="M11.9 0.4Q7.2 0.4 4.38-2.55 1.55-5.5 1.55-10.65L1.55-10.65 1.55-30.45Q1.55-36.85 4.1-40.1 6.65-43.35 12.1-43.35L12.1-43.35Q16.85-43.35 19.75-40.75 22.65-38.15 22.65-33.25L22.65-33.25 22.65-25.85 14.1-25.85 14.1-32.2Q14.1-34.05 13.65-34.75 13.2-35.45 12.1-35.45L12.1-35.45Q10.95-35.45 10.53-34.65 10.1-33.85 10.1-32.3L10.1-32.3 10.1-10.75Q10.1-9.05 10.6-8.28 11.1-7.5 12.1-7.5L12.1-7.5Q14.1-7.5 14.1-10.75L14.1-10.75 14.1-18.5 22.75-18.5 22.75-10.4Q22.75 0.4 11.9 0.4L11.9 0.4ZM32.1 0.4Q27.85 0.4 26.27-2.43 24.7-5.25 24.7-10.5L24.7-10.5Q24.7-14.8 25.82-17.1 26.95-19.4 28.95-20.48 30.95-21.55 35.05-22.85L35.05-22.85 37.45-23.65 37.45-23.75 37.45-27.4Q37.45-28.85 36.87-29.63 36.3-30.4 35.5-30.4L35.5-30.4Q34.8-30.4 34.27-29.75 33.75-29.1 33.75-28L33.75-28 33.75-25.8 25.25-25.8 25.25-27Q25.25-32.4 27.77-34.7 30.3-37 36-37L36-37Q40.55-37 43.4-34.63 46.25-32.25 46.25-27.9L46.25-27.9 46.25 0 37.55 0 37.55-4.35Q36.9-2.1 35.47-0.85 34.05 0.4 32.1 0.4L32.1 0.4ZM35.55-6.4Q36.55-6.4 36.97-7.23 37.4-8.05 37.4-9.25L37.4-9.25 37.4-19.45Q35.45-18.7 34.52-17.55 33.6-16.4 33.6-14.35L33.6-14.35 33.6-9.65Q33.6-6.4 35.55-6.4L35.55-6.4ZM56.8 0.4Q53.6 0.4 51.97-1.13 50.35-2.65 49.82-5.18 49.3-7.7 49.3-11.65L49.3-11.65 49.4-28.15Q49.4-32.05 51.37-34.52 53.35-37 56.95-37L56.95-37Q60.5-37 62.25-34.65L62.25-34.65 62.25-43.2 71-43.2 71 0 62.25 0 62.25-3.9Q61.5-1.75 60.22-0.68 58.95 0.4 56.8 0.4L56.8 0.4ZM60.15-6.45Q61.45-6.45 61.85-7.73 62.25-9 62.25-11.15L62.25-11.15 62.25-12.7 62.25-26.45Q62.25-28.05 61.8-29.15 61.35-30.25 60.2-30.25L60.2-30.25Q58.9-30.25 58.47-29.23 58.05-28.2 58.05-26.45L58.05-26.45 58.05-11.05Q58.05-6.45 60.15-6.45L60.15-6.45ZM84.74 0.4Q79.09 0.4 76.64-2.7 74.19-5.8 74.19-11.95L74.19-11.95 74.19-26.65Q74.19-31.7 77.09-34.35 79.99-37 85.19-37L85.19-37Q95.74-37 95.74-26.65L95.74-26.65 95.74-24Q95.74-20 95.64-17.5L95.64-17.5 82.94-17.5 82.94-10.4Q82.94-8.5 83.34-7.43 83.74-6.35 85.04-6.35L85.04-6.35Q86.04-6.35 86.47-6.95 86.89-7.55 86.97-8.33 87.04-9.1 87.04-10.6L87.04-10.6 87.04-14.15 95.74-14.15 95.74-12.05Q95.74-5.65 93.27-2.63 90.79 0.4 84.74 0.4L84.74 0.4ZM82.89-21.85L87.04-21.85 87.04-26.55Q87.04-30.5 85.09-30.5L85.09-30.5Q82.89-30.5 82.89-26.55L82.89-26.55 82.89-21.85ZM98.89 0L98.89-36.6 107.64-36.6 107.64-31.95Q108.19-34.2 109.54-35.6 110.89-37 113.14-37L113.14-37Q116.84-37 118.62-34.73 120.39-32.45 120.39-28.25L120.39-28.25 120.39 0 111.79 0 111.79-27.35Q111.79-28.55 111.32-29.4 110.84-30.25 109.84-30.25L109.84-30.25Q108.49-30.25 108.07-29.03 107.64-27.8 107.64-25.75L107.64-25.75 107.64 0 98.89 0ZM134.84 0.4Q128.84 0.4 126.19-2.65 123.54-5.7 123.54-12L123.54-12 123.54-23.3Q123.54-28.05 124.56-31.03 125.59-34 128.01-35.5 130.44-37 134.74-37L134.74-37Q139.44-37 142.39-34.55 145.34-32.1 145.34-27.7L145.34-27.7 145.34-22.1 136.44-22.1 136.44-27.25Q136.44-28.7 136.04-29.48 135.64-30.25 134.49-30.25L134.49-30.25Q132.34-30.25 132.34-27.2L132.34-27.2 132.34-9.45Q132.34-8.2 132.86-7.33 133.39-6.45 134.44-6.45L134.44-6.45Q135.49-6.45 136.01-7.3 136.54-8.15 136.49-9.5L136.49-9.5 136.44-15.65 145.34-15.65 145.34-9.25Q145.34-4.75 142.41-2.18 139.49 0.4 134.84 0.4L134.84 0.4ZM158.64 0.4Q152.99 0.4 150.54-2.7 148.09-5.8 148.09-11.95L148.09-11.95 148.09-26.65Q148.09-31.7 150.99-34.35 153.89-37 159.09-37L159.09-37Q169.64-37 169.64-26.65L169.64-26.65 169.64-24Q169.64-20 169.54-17.5L169.54-17.5 156.84-17.5 156.84-10.4Q156.84-8.5 157.24-7.43 157.64-6.35 158.94-6.35L158.94-6.35Q159.94-6.35 160.36-6.95 160.79-7.55 160.86-8.33 160.94-9.1 160.94-10.6L160.94-10.6 160.94-14.15 169.64-14.15 169.64-12.05Q169.64-5.65 167.16-2.63 164.69 0.4 158.64 0.4L158.64 0.4ZM156.79-21.85L160.94-21.85 160.94-26.55Q160.94-30.5 158.99-30.5L158.99-30.5Q156.79-30.5 156.79-26.55L156.79-26.55 156.79-21.85Z" opacity="1" transform="matrix(1,0,0,1,0,0)" fill="#6936f5" class="wordmark-text-0" data-fill-palette-color="primary" id="text-0"></path></svg></g></svg></g></svg></g></svg></g><g transform="matrix(1,0,0,1,419.8213629030339,0)"><svg viewBox="0 0 142.26132064247471 142.26132064247471" height="142.26132064247471" width="142.26132064247471"><g data-palette-color="#6936f5"><rect width="38.88476097560976" height="142.26132064247471" fill="#6936f5" stroke="transparent" data-fill-palette-color="accent" x="0" fill-opacity="1"></rect><rect width="38.88476097560976" height="142.26132064247471" fill="#6936f5" stroke="transparent" data-fill-palette-color="accent" x="47.42044021415824" fill-opacity="0.75"></rect><rect width="38.88476097560976" height="142.26132064247471" fill="#6936f5" stroke="transparent" data-fill-palette-color="accent" x="94.84088042831648" fill-opacity="0.5"></rect></g></svg></g></svg></g><defs></defs></svg><rect width="395.52" height="100.10484077820902" fill="none" stroke="none" visibility="hidden"></rect></g></svg></g></svg>